<svg width="148" height="128" viewBox="0 0 148 128" fill="none" xmlns="http://www.w3.org/2000/svg">
<path d="M106.975 73.2519L138.555 64.7412C140.882 64.1142 143.152 64.5662 145.064 66.0438C146.976 67.5214 148 69.6065 148 72.0368V115.761C148 118.187 146.976 120.277 145.064 121.749C143.152 123.227 140.882 123.679 138.555 123.057L106.975 114.541L102.214 93.5297L106.975 73.2519Z" fill="url(#paint0_linear_17_334)"/>
<path d="M113.055 71.6188L138.555 64.7461C140.882 64.1191 143.152 64.5711 145.064 66.0487C146.976 67.5263 148 69.6114 148 72.0416V115.766C122.736 115.766 144.504 68.3234 113.055 71.6188Z" fill="url(#paint1_linear_17_334)"/>
<path d="M106.975 73.2519L110.602 72.2749C110.626 72.5957 110.64 72.9262 110.64 73.2519V114.546C110.64 114.877 110.631 115.202 110.602 115.523L106.975 114.546V73.2519Z" fill="#020C6A"/>
<path d="M23.3372 57.9269C36.2259 57.9269 46.6743 47.4098 46.6743 34.4363C46.6743 21.4628 36.2259 10.9457 23.3372 10.9457C10.4484 10.9457 0 21.4628 0 34.4363C0 47.4098 10.4484 57.9269 23.3372 57.9269Z" fill="url(#paint2_linear_17_334)"/>
<g style="mix-blend-mode:overlay">
<path d="M23.3371 52.9109C13.1968 52.9109 4.97838 44.6384 4.97838 34.4314C4.97838 24.2245 13.1968 15.9569 23.3371 15.9569C33.4774 15.9569 41.6959 24.2294 41.6959 34.4363C41.6959 44.6433 33.4774 52.9157 23.3371 52.9157V52.9109Z" fill="url(#paint3_linear_17_334)"/>
</g>
<path d="M23.3371 52.9109C13.1968 52.9109 4.97838 44.6384 4.97838 34.4314C4.97838 24.2245 13.1968 15.9569 23.3371 15.9569C33.4774 15.9569 41.6959 24.2294 41.6959 34.4363C41.6959 44.6433 33.4774 52.9157 23.3371 52.9157V52.9109Z" fill="url(#paint4_linear_17_334)" fill-opacity="0.5"/>
<path d="M23.3372 48.7114C31.1696 48.7114 37.5191 42.3202 37.5191 34.4363C37.5191 26.5524 31.1696 20.1612 23.3372 20.1612C15.5047 20.1612 9.15524 26.5524 9.15524 34.4363C9.15524 42.3202 15.5047 48.7114 23.3372 48.7114Z" fill="url(#paint5_linear_17_334)"/>
<path d="M26.6593 34.4363H20.015V61.7909H26.6593V34.4363Z" fill="url(#paint6_linear_17_334)"/>
<g style="mix-blend-mode:overlay">
<path d="M22.0865 59.1857V38.558C22.2169 38.5968 22.3521 38.6309 22.4825 38.66V59.1857H22.0865ZM24.1822 59.1857V38.66C24.3174 38.6309 24.4526 38.5968 24.5781 38.558V59.1857H24.1822Z" fill="white"/>
</g>
<path d="M24.187 61.7861H22.4873V34.8835H24.187V61.7861Z" fill="url(#paint7_linear_17_334)"/>
<path d="M23.3372 38.7475C25.7026 38.7475 27.6202 36.8173 27.6202 34.4363C27.6202 32.0553 25.7026 30.1251 23.3372 30.1251C20.9717 30.1251 19.0541 32.0553 19.0541 34.4363C19.0541 36.8173 20.9717 38.7475 23.3372 38.7475Z" fill="url(#paint8_linear_17_334)"/>
<path d="M23.3372 38.7475C20.9711 38.7475 19.0541 36.8179 19.0541 34.4363C19.0541 34.0086 19.1169 33.5954 19.2328 33.2017C19.2328 35.491 21.0725 37.338 23.3372 37.338C25.6018 37.338 27.4416 35.4861 27.4416 33.2066C27.5575 33.5906 27.6202 34.0086 27.6202 34.4363C27.6202 36.8179 25.7032 38.7475 23.3372 38.7475Z" fill="#020C6A"/>
<g style="mix-blend-mode:overlay" opacity="0.7">
<path d="M23.3372 30.1251C20.9711 30.1251 19.0541 32.0547 19.0541 34.4363C19.0541 34.864 19.1169 35.2772 19.2328 35.666C19.2328 33.3816 21.0725 31.5297 23.3372 31.5297C25.6018 31.5297 27.4416 33.3816 27.4416 35.6611C27.5575 35.2772 27.6202 34.864 27.6202 34.4363C27.6202 32.0547 25.7032 30.1251 23.3372 30.1251Z" fill="white"/>
</g>
<path d="M20.015 57.6887C19.537 57.6206 19.0589 57.5332 18.5905 57.4408L20.015 37.1581V57.6887Z" fill="#1C2A39"/>
<path d="M26.6593 57.6887C27.1373 57.6206 27.6154 57.538 28.0838 57.4408L26.6593 37.1581V57.6887Z" fill="#1C2A39"/>
<path d="M78.0996 58.2379C94.0765 58.2379 107.028 45.2009 107.028 29.119C107.028 13.037 94.0765 0 78.0996 0C62.1226 0 49.1708 13.037 49.1708 29.119C49.1708 45.2009 62.1226 58.2379 78.0996 58.2379Z" fill="url(#paint9_linear_17_334)"/>
<g style="mix-blend-mode:overlay">
<path d="M78.0996 52.0263C65.5305 52.0263 55.3419 41.7707 55.3419 29.119C55.3419 16.4672 65.5305 6.21165 78.0996 6.21165C90.6687 6.21165 100.857 16.4672 100.857 29.119C100.857 41.7707 90.6639 52.0263 78.0996 52.0263Z" fill="white"/>
</g>
<g style="mix-blend-mode:overlay">
<path d="M78.0996 52.0263C65.5305 52.0263 55.3419 41.7707 55.3419 29.119C55.3419 16.4672 65.5305 6.21165 78.0996 6.21165C90.6687 6.21165 100.857 16.4672 100.857 29.119C100.857 41.7707 90.6639 52.0263 78.0996 52.0263Z" fill="url(#paint10_linear_17_334)"/>
</g>
<g opacity="0.1">
<path d="M78.0996 52.0263C65.5305 52.0263 55.3419 41.7707 55.3419 29.119C55.3419 16.4672 65.5305 6.21165 78.0996 6.21165C90.6687 6.21165 100.857 16.4672 100.857 29.119C100.857 41.7707 90.6639 52.0263 78.0996 52.0263Z" fill="url(#paint11_linear_17_334)"/>
</g>
<path d="M95.4494 31.9531C97.0048 22.3083 90.498 13.2205 80.9162 11.6549C71.3344 10.0893 62.3059 16.6388 60.7506 26.2836C59.1952 35.9284 65.702 45.0163 75.2838 46.5818C84.8656 48.1474 93.8941 41.5979 95.4494 31.9531Z" fill="url(#paint12_linear_17_334)"/>
<path d="M82.2184 29.119H73.9758V63.0303H82.2184V29.119Z" fill="url(#paint13_linear_17_334)"/>
<g style="mix-blend-mode:overlay">
<path d="M76.5496 59.8078V34.2321C76.7089 34.2808 76.8779 34.3245 77.0421 34.3585V59.8078H76.5496ZM79.1474 59.8078V34.3585C79.3164 34.3245 79.4806 34.2808 79.6448 34.2321V59.8078H79.1474Z" fill="white"/>
</g>
<path d="M79.1474 63.0303H77.0421V29.6731H79.1474V63.0303Z" fill="url(#paint14_linear_17_334)"/>
<path d="M78.0996 34.4606C81.0304 34.4606 83.4063 32.0691 83.4063 29.119C83.4063 26.1689 81.0304 23.7773 78.0996 23.7773C75.1687 23.7773 72.7928 26.1689 72.7928 29.119C72.7928 32.0691 75.1687 34.4606 78.0996 34.4606Z" fill="url(#paint15_linear_17_334)"/>
<path d="M78.0996 34.4654C75.1686 34.4654 72.7928 32.0741 72.7928 29.1238C72.7928 28.594 72.8701 28.0837 73.015 27.5976C73.015 30.4313 75.2941 32.7254 78.1044 32.7254C80.9147 32.7254 83.1939 30.4313 83.1939 27.6025C83.3387 28.0788 83.416 28.594 83.416 29.1238C83.416 32.0741 81.0403 34.4654 78.1092 34.4654H78.0996Z" fill="#020C6A"/>
<g style="mix-blend-mode:overlay" opacity="0.7">
<path d="M78.0996 23.7773C75.1686 23.7773 72.7928 26.1687 72.7928 29.119C72.7928 29.6488 72.8701 30.1591 73.015 30.6451C73.015 27.8115 75.2941 25.5174 78.1044 25.5174C80.9147 25.5174 83.1939 27.8115 83.1939 30.6403C83.3387 30.164 83.416 29.6488 83.416 29.119C83.416 26.1687 81.0403 23.7773 78.1092 23.7773H78.0996Z" fill="white"/>
</g>
<path d="M73.9759 57.9463C73.3819 57.8637 72.7928 57.7568 72.2086 57.6352L73.9759 32.4921V57.9463Z" fill="#020C6A"/>
<path d="M82.2184 57.9463C82.8124 57.8588 83.4015 57.7568 83.9809 57.6352L82.2184 32.4921V57.9463Z" fill="#020C6A"/>
<path d="M13.4143 59.8079H93.6144C100.973 59.8079 106.975 65.8494 106.975 73.2567V114.551C106.975 121.958 100.973 128 93.6144 128H13.4143C6.05536 127.995 0.0484467 121.954 0.0484467 114.546V73.2519C0.0484467 65.8445 6.05054 59.803 13.4095 59.803L13.4143 59.8079Z" fill="url(#paint16_linear_17_334)"/>
<path d="M13.4143 59.8079H57.7274C15.4376 67.1763 40.6096 112.189 0.0484467 114.546V73.2519C0.0484467 65.8445 6.05054 59.803 13.4095 59.803L13.4143 59.8079Z" fill="url(#paint17_linear_17_334)"/>
<path d="M57.7274 59.8078C15.4376 67.1763 40.6096 112.189 0.0484467 114.546V108.019C34.8345 106.42 17.06 62.9769 57.7226 59.8078H57.7274Z" fill="#01052D"/>
<path d="M93.6142 127.995H49.3011C91.591 120.622 66.4141 75.614 106.975 73.2519V114.546C106.975 121.954 100.973 127.995 93.6142 127.995Z" fill="url(#paint18_linear_17_334)"/>
<path d="M64.1011 127.995H49.3011C91.591 120.622 66.4141 75.614 106.975 73.2519C70.9337 78.3505 91.2916 113.773 64.1011 127.995Z" fill="#01052D"/>
<g style="mix-blend-mode:overlay" opacity="0.6">
<path d="M57.7274 59.8078C15.4375 67.1763 40.6096 112.189 0.0484467 114.546C40.1268 119.11 19.175 68.8677 57.7226 59.8078H57.7274Z" fill="white"/>
</g>
<g style="mix-blend-mode:overlay">
<path d="M49.3011 127.995C91.591 120.622 66.4141 75.6141 106.975 73.2519C66.8969 68.6879 87.8487 118.93 49.3011 127.995Z" fill="white" fill-opacity="0.6"/>
</g>
<path d="M113.055 71.6188C143.355 70.5495 119.264 114.094 146.909 119.732C147.628 118.576 148 117.234 148 115.766C122.736 115.766 144.504 68.3234 113.055 71.6188Z" fill="#01052D"/>
<g style="mix-blend-mode:overlay">
<path d="M113.055 71.6188C144.504 68.3234 122.736 115.766 148 115.766C125.971 110.721 145.948 62.7533 113.055 71.6188Z" fill="white" fill-opacity="0.6"/>
</g>
<g style="mix-blend-mode:overlay">
<g style="mix-blend-mode:overlay">
<path d="M13.4143 59.8079H93.6144C100.973 59.8079 106.975 65.8494 106.975 73.2567V83.2109C106.975 75.8036 100.973 69.7621 93.6144 69.7621H13.4143C6.05536 69.7572 0.0484467 75.7987 0.0484467 83.2061V73.2519C0.0484467 65.8445 6.05054 59.803 13.4095 59.803L13.4143 59.8079Z" fill="url(#paint19_linear_17_334)" fill-opacity="0.7"/>
</g>
</g>
<g style="mix-blend-mode:overlay">
<path d="M106.975 73.2519L138.555 64.7412C140.882 64.1142 143.152 64.5662 145.064 66.0438C146.976 67.5214 148 69.6065 148 72.0368V78.856C148 76.4306 146.976 74.3406 145.064 72.8679C143.152 71.3903 140.882 70.9383 138.555 71.5653L106.975 80.0759V73.2567V73.2519Z" fill="url(#paint20_linear_17_334)"/>
</g>
<defs>
<linearGradient id="paint0_linear_17_334" x1="125.107" y1="118.41" x2="125.107" y2="48.9302" gradientUnits="userSpaceOnUse">
<stop stop-color="#021B8D"/>
<stop offset="1" stop-color="#C835F8"/>
</linearGradient>
<linearGradient id="paint1_linear_17_334" x1="130.525" y1="118.41" x2="130.53" y2="59.0691" gradientUnits="userSpaceOnUse">
<stop stop-color="#0131B9"/>
<stop offset="1" stop-color="#8EFFC1"/>
</linearGradient>
<linearGradient id="paint2_linear_17_334" x1="23.3372" y1="61.7861" x2="23.3372" y2="4.62715" gradientUnits="userSpaceOnUse">
<stop stop-color="#021B8D"/>
<stop offset="1" stop-color="#C835F8"/>
</linearGradient>
<linearGradient id="paint3_linear_17_334" x1="23.3371" y1="15.9569" x2="23.3371" y2="52.9157" gradientUnits="userSpaceOnUse">
<stop stop-color="white" stop-opacity="0.6"/>
<stop offset="1" stop-color="white"/>
</linearGradient>
<linearGradient id="paint4_linear_17_334" x1="23.3371" y1="15.9569" x2="23.3371" y2="52.9157" gradientUnits="userSpaceOnUse">
<stop stop-color="white" stop-opacity="0.6"/>
<stop offset="1" stop-color="white"/>
</linearGradient>
<linearGradient id="paint5_linear_17_334" x1="23.3372" y1="55.0252" x2="23.3372" y2="18.8294" gradientUnits="userSpaceOnUse">
<stop/>
<stop offset="1" stop-color="#021B8D"/>
</linearGradient>
<linearGradient id="paint6_linear_17_334" x1="23.3324" y1="61.5625" x2="23.3372" y2="27.3643" gradientUnits="userSpaceOnUse">
<stop stop-color="#021B8D"/>
<stop offset="1" stop-color="#C835F8"/>
</linearGradient>
<linearGradient id="paint7_linear_17_334" x1="8.12941e-06" y1="67.745" x2="0.489247" y2="33.6198" gradientUnits="userSpaceOnUse">
<stop/>
<stop offset="1" stop-color="#021B8D"/>
</linearGradient>
<linearGradient id="paint8_linear_17_334" x1="23.3372" y1="38.6746" x2="23.3372" y2="27.899" gradientUnits="userSpaceOnUse">
<stop stop-color="#021B8D"/>
<stop offset="1" stop-color="#C835F8"/>
</linearGradient>
<linearGradient id="paint9_linear_17_334" x1="78.0996" y1="63.0303" x2="78.0996" y2="-7.83505" gradientUnits="userSpaceOnUse">
<stop stop-color="#021B8D"/>
<stop offset="1" stop-color="#C835F8"/>
</linearGradient>
<linearGradient id="paint10_linear_17_334" x1="78.0996" y1="6.21165" x2="78.0996" y2="52.0263" gradientUnits="userSpaceOnUse">
<stop stop-color="white" stop-opacity="0.9"/>
<stop offset="1" stop-color="white"/>
</linearGradient>
<linearGradient id="paint11_linear_17_334" x1="78.0996" y1="6.21165" x2="78.0996" y2="52.0263" gradientUnits="userSpaceOnUse">
<stop stop-color="white" stop-opacity="0.9"/>
<stop offset="1" stop-color="white"/>
</linearGradient>
<linearGradient id="paint12_linear_17_334" x1="78.0629" y1="54.6447" x2="78.0629" y2="9.76818" gradientUnits="userSpaceOnUse">
<stop/>
<stop offset="1" stop-color="#021B8D"/>
</linearGradient>
<linearGradient id="paint13_linear_17_334" x1="78.0947" y1="62.7533" x2="78.0996" y2="20.3556" gradientUnits="userSpaceOnUse">
<stop stop-color="#021B8D"/>
<stop offset="1" stop-color="#C835F8"/>
</linearGradient>
<linearGradient id="paint14_linear_17_334" x1="78.0947" y1="70.4134" x2="78.0947" y2="28.1129" gradientUnits="userSpaceOnUse">
<stop/>
<stop offset="1" stop-color="#021B8D"/>
</linearGradient>
<linearGradient id="paint15_linear_17_334" x1="78.0948" y1="34.378" x2="78.0996" y2="21.0166" gradientUnits="userSpaceOnUse">
<stop stop-color="#021B8D"/>
<stop offset="1" stop-color="#C835F8"/>
</linearGradient>
<linearGradient id="paint16_linear_17_334" x1="53.5119" y1="126.586" x2="53.5119" y2="50.5487" gradientUnits="userSpaceOnUse">
<stop stop-color="#0131B9"/>
<stop offset="1" stop-color="#8EFFC1"/>
</linearGradient>
<linearGradient id="paint17_linear_17_334" x1="28.8903" y1="112.563" x2="28.8903" y2="52.6095" gradientUnits="userSpaceOnUse">
<stop stop-color="#021B8D"/>
<stop offset="1" stop-color="#C835F8"/>
</linearGradient>
<linearGradient id="paint18_linear_17_334" x1="78.1382" y1="129.235" x2="78.1382" y2="61.0424" gradientUnits="userSpaceOnUse">
<stop stop-color="#021B8D"/>
<stop offset="1" stop-color="#C835F8"/>
</linearGradient>
<linearGradient id="paint19_linear_17_334" x1="53.5119" y1="70.1804" x2="53.5119" y2="59.803" gradientUnits="userSpaceOnUse">
<stop stop-color="white"/>
<stop offset="1" stop-color="white" stop-opacity="0.4"/>
</linearGradient>
<linearGradient id="paint20_linear_17_334" x1="127.488" y1="64.4666" x2="127.488" y2="80.0759" gradientUnits="userSpaceOnUse">
<stop stop-color="white" stop-opacity="0.6"/>
<stop offset="1" stop-color="white"/>
</linearGradient>
</defs>
</svg>
