<svg width="19" height="18" viewBox="0 0 19 18" fill="none" xmlns="http://www.w3.org/2000/svg">
<path d="M12.0501 12.1999C12.0501 12.6418 12.4306 12.9999 12.9001 12.9999C13.3695 12.9999 13.7501 12.6418 13.7501 12.1999C13.7501 11.7581 13.3695 11.3999 12.9001 11.3999C12.4306 11.3999 12.0501 11.7581 12.0501 12.1999Z" fill="white"/>
<path d="M8.65004 12.1999C8.65004 12.6418 9.03058 12.9999 9.50004 12.9999C9.96949 12.9999 10.35 12.6418 10.35 12.1999C10.35 11.7581 9.96949 11.3999 9.50004 11.3999C9.03058 11.3999 8.65004 11.7581 8.65004 12.1999Z" fill="white"/>
<path d="M5.25001 12.1999C5.25001 12.6418 5.63056 12.9999 6.10001 12.9999C6.56947 12.9999 6.95001 12.6418 6.95001 12.1999C6.95001 11.7581 6.56947 11.3999 6.10001 11.3999C5.63056 11.3999 5.25001 11.7581 5.25001 12.1999Z" fill="white"/>
<path d="M14.6 7.40001V5.80001C14.6 5.52744 14.5759 5.26018 14.5295 5.00001M4.40004 7.40001V5.80001C4.40004 3.14904 6.68339 1 9.50004 1C11.0232 1 12.3905 1.62851 13.325 2.62501" stroke="white" stroke-linecap="round"/>
<path d="M10.35 17H12.9C15.3042 17 16.5062 17 17.2531 16.297C18 15.594 18 14.4627 18 12.1999C18 9.93722 18 8.80586 17.2531 8.10289C16.5062 7.39993 15.3042 7.39993 12.9 7.39993H6.1C3.69586 7.39993 2.49379 7.39993 1.74689 8.10289C1 8.80586 1 9.93722 1 12.1999C1 14.4627 1 15.594 1.74689 16.297C2.49379 17 3.69586 17 6.1 17H6.95" stroke="white" stroke-linecap="round"/>
</svg>
