<svg width="27" height="25" viewBox="0 0 27 25" fill="none" xmlns="http://www.w3.org/2000/svg">
<path d="M19.5157 14.3518L25.2769 12.756C25.7015 12.6385 26.1155 12.7232 26.4644 13.0003C26.8132 13.2773 27 13.6683 27 14.1239V22.3223C27 22.7771 26.8132 23.1689 26.4644 23.4451C26.1155 23.7221 25.7015 23.8069 25.2769 23.6902L19.5157 22.0936L18.6472 18.1539L19.5157 14.3518Z" fill="url(#paint0_linear_21_99)"/>
<path d="M20.6248 14.0456L25.2769 12.757C25.7015 12.6394 26.1155 12.7241 26.4644 13.0012C26.8132 13.2782 27 13.6692 27 14.1249V22.3232C22.391 22.3232 26.3622 13.4277 20.6248 14.0456Z" fill="url(#paint1_linear_21_99)"/>
<path d="M19.5157 14.3518L20.1773 14.1686C20.1817 14.2287 20.1844 14.2907 20.1844 14.3518V22.0945C20.1844 22.1564 20.1826 22.2175 20.1773 22.2776L19.5157 22.0945V14.3518Z" fill="#020C6A"/>
<path d="M4.25745 11.4783C6.60878 11.4783 8.5149 9.50639 8.5149 7.07386C8.5149 4.64134 6.60878 2.66938 4.25745 2.66938C1.90613 2.66938 0 4.64134 0 7.07386C0 9.50639 1.90613 11.4783 4.25745 11.4783Z" fill="url(#paint2_linear_21_99)"/>
<g style="mix-blend-mode:overlay">
<path d="M4.25749 10.5378C2.40758 10.5378 0.908264 8.98676 0.908264 7.07295C0.908264 5.15915 2.40758 3.60897 4.25749 3.60897C6.10741 3.60897 7.60672 5.16006 7.60672 7.07386C7.60672 8.98767 6.10741 10.5388 4.25749 10.5388V10.5378Z" fill="url(#paint3_linear_21_99)"/>
</g>
<path d="M4.25749 10.5378C2.40758 10.5378 0.908264 8.98676 0.908264 7.07295C0.908264 5.15915 2.40758 3.60897 4.25749 3.60897C6.10741 3.60897 7.60672 5.16006 7.60672 7.07386C7.60672 8.98767 6.10741 10.5388 4.25749 10.5388V10.5378Z" fill="url(#paint4_linear_21_99)" fill-opacity="0.5"/>
<path d="M4.25747 9.75046C5.68636 9.75046 6.84471 8.55211 6.84471 7.07387C6.84471 5.59563 5.68636 4.39728 4.25747 4.39728C2.82857 4.39728 1.67023 5.59563 1.67023 7.07387C1.67023 8.55211 2.82857 9.75046 4.25747 9.75046Z" fill="url(#paint5_linear_21_99)"/>
<path d="M4.86356 7.07386H3.65143V12.2029H4.86356V7.07386Z" fill="url(#paint6_linear_21_99)"/>
<g style="mix-blend-mode:overlay">
<path d="M4.0293 11.7144V7.84667C4.05308 7.85396 4.07775 7.86034 4.10153 7.86581V11.7144H4.0293ZM4.41161 11.7144V7.86581C4.43628 7.86034 4.46094 7.85396 4.48385 7.84667V11.7144H4.41161Z" fill="white"/>
</g>
<path d="M4.4125 12.2019H4.10242V7.15771H4.4125V12.2019Z" fill="url(#paint7_linear_21_99)"/>
<path d="M4.25744 7.88222C4.68898 7.88222 5.03881 7.52031 5.03881 7.07386C5.03881 6.62742 4.68898 6.26551 4.25744 6.26551C3.82591 6.26551 3.47607 6.62742 3.47607 7.07386C3.47607 7.52031 3.82591 7.88222 4.25744 7.88222Z" fill="url(#paint8_linear_21_99)"/>
<path d="M4.25744 7.88222C3.8258 7.88222 3.47607 7.52042 3.47607 7.07386C3.47607 6.99367 3.48753 6.9162 3.50867 6.84238C3.50867 7.27162 3.8443 7.61793 4.25744 7.61793C4.67059 7.61793 5.00622 7.27071 5.00622 6.8433C5.02736 6.91529 5.03881 6.99367 5.03881 7.07386C5.03881 7.52042 4.68909 7.88222 4.25744 7.88222Z" fill="#020C6A"/>
<g style="mix-blend-mode:overlay" opacity="0.7">
<path d="M4.25744 6.26551C3.8258 6.26551 3.47607 6.62731 3.47607 7.07387C3.47607 7.15406 3.48753 7.23153 3.50867 7.30444C3.50867 6.87611 3.8443 6.52889 4.25744 6.52889C4.67059 6.52889 5.00622 6.87611 5.00622 7.30352C5.02736 7.23153 5.03881 7.15406 5.03881 7.07387C5.03881 6.62731 4.68909 6.26551 4.25744 6.26551Z" fill="white"/>
</g>
<path d="M3.65141 11.4337C3.5642 11.4209 3.47699 11.4045 3.39154 11.3872L3.65141 7.58421V11.4337Z" fill="#1C2A39"/>
<path d="M4.86359 11.4337C4.9508 11.4209 5.03801 11.4054 5.12346 11.3872L4.86359 7.58421V11.4337Z" fill="#1C2A39"/>
<path d="M14.2479 11.5367C17.1626 11.5367 19.5254 9.09223 19.5254 6.07686C19.5254 3.0615 17.1626 0.617058 14.2479 0.617058C11.3332 0.617058 8.97034 3.0615 8.97034 6.07686C8.97034 9.09223 11.3332 11.5367 14.2479 11.5367Z" fill="url(#paint9_linear_21_99)"/>
<g style="mix-blend-mode:overlay">
<path d="M14.2479 10.372C11.9549 10.372 10.0961 8.44907 10.0961 6.07686C10.0961 3.70466 11.9549 1.78174 14.2479 1.78174C16.5409 1.78174 18.3996 3.70466 18.3996 6.07686C18.3996 8.44907 16.54 10.372 14.2479 10.372Z" fill="white"/>
</g>
<g style="mix-blend-mode:overlay">
<path d="M14.2479 10.372C11.9549 10.372 10.0961 8.44907 10.0961 6.07686C10.0961 3.70466 11.9549 1.78174 14.2479 1.78174C16.5409 1.78174 18.3996 3.70466 18.3996 6.07686C18.3996 8.44907 16.54 10.372 14.2479 10.372Z" fill="url(#paint10_linear_21_99)"/>
</g>
<g opacity="0.1">
<path d="M14.2479 10.372C11.9549 10.372 10.0961 8.44907 10.0961 6.07686C10.0961 3.70466 11.9549 1.78174 14.2479 1.78174C16.5409 1.78174 18.3996 3.70466 18.3996 6.07686C18.3996 8.44907 16.54 10.372 14.2479 10.372Z" fill="url(#paint11_linear_21_99)"/>
</g>
<path d="M17.413 6.60826C17.6968 4.79986 16.5098 3.0959 14.7617 2.80235C13.0137 2.50881 11.3666 3.73684 11.0829 5.54524C10.7991 7.35364 11.9862 9.05761 13.7342 9.35115C15.4822 9.6447 17.1293 8.41666 17.413 6.60826Z" fill="url(#paint12_linear_21_99)"/>
<path d="M14.9993 6.07686H13.4955V12.4352H14.9993V6.07686Z" fill="url(#paint13_linear_21_99)"/>
<g style="mix-blend-mode:overlay">
<path d="M13.9651 11.831V7.03558C13.9942 7.0447 14.0251 7.0529 14.055 7.05928V11.831H13.9651ZM14.4391 11.831V7.05928C14.4699 7.0529 14.4999 7.0447 14.5298 7.03558V11.831H14.4391Z" fill="white"/>
</g>
<path d="M14.4391 12.4352H14.055V6.18076H14.4391V12.4352Z" fill="url(#paint14_linear_21_99)"/>
<path d="M14.2479 7.07842C14.7826 7.07842 15.216 6.63001 15.216 6.07687C15.216 5.52372 14.7826 5.07531 14.2479 5.07531C13.7132 5.07531 13.2798 5.52372 13.2798 6.07687C13.2798 6.63001 13.7132 7.07842 14.2479 7.07842Z" fill="url(#paint15_linear_21_99)"/>
<path d="M14.2479 7.07933C13.7132 7.07933 13.2798 6.63096 13.2798 6.07778C13.2798 5.97844 13.2939 5.88275 13.3203 5.79162C13.3203 6.32293 13.7361 6.75308 14.2488 6.75308C14.7615 6.75308 15.1773 6.32293 15.1773 5.79253C15.2037 5.88184 15.2178 5.97844 15.2178 6.07778C15.2178 6.63096 14.7844 7.07933 14.2497 7.07933H14.2479Z" fill="#020C6A"/>
<g style="mix-blend-mode:overlay" opacity="0.7">
<path d="M14.2479 5.07531C13.7132 5.07531 13.2798 5.52369 13.2798 6.07687C13.2798 6.1762 13.2939 6.27189 13.3203 6.36303C13.3203 5.83172 13.7361 5.40157 14.2488 5.40157C14.7615 5.40157 15.1773 5.83172 15.1773 6.36211C15.2037 6.2728 15.2178 6.1762 15.2178 6.07687C15.2178 5.52369 14.7844 5.07531 14.2497 5.07531H14.2479Z" fill="white"/>
</g>
<path d="M13.4956 11.482C13.3872 11.4665 13.2797 11.4465 13.1732 11.4237L13.4956 6.70934V11.482Z" fill="#020C6A"/>
<path d="M14.9993 11.482C15.1077 11.4656 15.2152 11.4465 15.3209 11.4237L14.9993 6.70934V11.482Z" fill="#020C6A"/>
<path d="M2.44716 11.831H17.0782C18.4207 11.831 19.5157 12.9638 19.5157 14.3527V22.0954C19.5157 23.4843 18.4207 24.6171 17.0782 24.6171H2.44716C1.10464 24.6161 0.00878906 23.4834 0.00878906 22.0945V14.3518C0.00878906 12.9629 1.10376 11.8301 2.44627 11.8301L2.44716 11.831Z" fill="url(#paint16_linear_21_99)"/>
<path d="M2.44716 11.831H10.5313C2.81626 13.2126 7.40846 21.6525 0.00878906 22.0945V14.3518C0.00878906 12.9629 1.10376 11.8301 2.44627 11.8301L2.44716 11.831Z" fill="url(#paint17_linear_21_99)"/>
<path d="M10.5313 11.831C2.81626 13.2126 7.40846 21.6525 0.00878906 22.0945V20.8706C6.35488 20.5707 3.11224 12.4252 10.5304 11.831H10.5313Z" fill="#01052D"/>
<path d="M17.0783 24.6161H8.99414C16.7092 23.2336 12.1161 14.7947 19.5158 14.3518V22.0945C19.5158 23.4833 18.4208 24.6161 17.0783 24.6161Z" fill="url(#paint18_linear_21_99)"/>
<path d="M11.6941 24.6161H8.99414C16.7092 23.2336 12.1161 14.7947 19.5158 14.3518C12.9406 15.3078 16.6546 21.9496 11.6941 24.6161Z" fill="#01052D"/>
<g style="mix-blend-mode:overlay" opacity="0.6">
<path d="M10.5313 11.831C2.81626 13.2126 7.40846 21.6525 0.00878906 22.0945C7.32036 22.9502 3.49808 13.5298 10.5304 11.831H10.5313Z" fill="white"/>
</g>
<g style="mix-blend-mode:overlay">
<path d="M8.99414 24.6161C16.7092 23.2337 12.1161 14.7947 19.5158 14.3518C12.2042 13.496 16.0265 22.9165 8.99414 24.6161Z" fill="white" fill-opacity="0.6"/>
</g>
<path d="M20.6248 14.0456C26.1525 13.8451 21.7577 22.0097 26.8009 23.0669C26.9321 22.85 27 22.5984 27 22.3232C22.391 22.3232 26.3622 13.4277 20.6248 14.0456Z" fill="#01052D"/>
<g style="mix-blend-mode:overlay">
<path d="M20.6248 14.0456C26.3622 13.4277 22.391 22.3232 27 22.3232C22.9813 21.3773 26.6256 12.3833 20.6248 14.0456Z" fill="white" fill-opacity="0.6"/>
</g>
<g style="mix-blend-mode:overlay">
<g style="mix-blend-mode:overlay">
<path d="M2.44716 11.831H17.0782C18.4207 11.831 19.5157 12.9638 19.5157 14.3527V16.2191C19.5157 14.8302 18.4207 13.6974 17.0782 13.6974H2.44716C1.10464 13.6965 0.00878906 14.8293 0.00878906 16.2182V14.3518C0.00878906 12.9629 1.10376 11.8301 2.44627 11.8301L2.44716 11.831Z" fill="url(#paint19_linear_21_99)" fill-opacity="0.7"/>
</g>
</g>
<g style="mix-blend-mode:overlay">
<path d="M19.5157 14.3518L25.2769 12.756C25.7015 12.6385 26.1155 12.7232 26.4644 13.0003C26.8132 13.2773 27 13.6683 27 14.1239V15.4026C27 14.9478 26.8132 14.5559 26.4644 14.2798C26.1155 14.0027 25.7015 13.918 25.2769 14.0355L19.5157 15.6313V14.3527V14.3518Z" fill="url(#paint20_linear_21_99)"/>
</g>
<defs>
<linearGradient id="paint0_linear_21_99" x1="22.8236" y1="22.819" x2="22.8236" y2="9.79146" gradientUnits="userSpaceOnUse">
<stop stop-color="#021B8D"/>
<stop offset="1" stop-color="#C835F8"/>
</linearGradient>
<linearGradient id="paint1_linear_21_99" x1="23.812" y1="22.819" x2="23.8129" y2="11.6925" gradientUnits="userSpaceOnUse">
<stop stop-color="#0131B9"/>
<stop offset="1" stop-color="#8EFFC1"/>
</linearGradient>
<linearGradient id="paint2_linear_21_99" x1="4.25745" y1="12.2019" x2="4.25745" y2="1.48465" gradientUnits="userSpaceOnUse">
<stop stop-color="#021B8D"/>
<stop offset="1" stop-color="#C835F8"/>
</linearGradient>
<linearGradient id="paint3_linear_21_99" x1="4.25749" y1="3.60897" x2="4.25749" y2="10.5388" gradientUnits="userSpaceOnUse">
<stop stop-color="white" stop-opacity="0.6"/>
<stop offset="1" stop-color="white"/>
</linearGradient>
<linearGradient id="paint4_linear_21_99" x1="4.25749" y1="3.60897" x2="4.25749" y2="10.5388" gradientUnits="userSpaceOnUse">
<stop stop-color="white" stop-opacity="0.6"/>
<stop offset="1" stop-color="white"/>
</linearGradient>
<linearGradient id="paint5_linear_21_99" x1="4.25747" y1="10.9343" x2="4.25747" y2="4.14757" gradientUnits="userSpaceOnUse">
<stop/>
<stop offset="1" stop-color="#021B8D"/>
</linearGradient>
<linearGradient id="paint6_linear_21_99" x1="4.25662" y1="12.16" x2="4.25756" y2="5.74787" gradientUnits="userSpaceOnUse">
<stop stop-color="#021B8D"/>
<stop offset="1" stop-color="#C835F8"/>
</linearGradient>
<linearGradient id="paint7_linear_21_99" x1="6.22917e-06" y1="13.3192" x2="0.0942856" y2="6.92085" gradientUnits="userSpaceOnUse">
<stop/>
<stop offset="1" stop-color="#021B8D"/>
</linearGradient>
<linearGradient id="paint8_linear_21_99" x1="4.25744" y1="7.86855" x2="4.25744" y2="5.84812" gradientUnits="userSpaceOnUse">
<stop stop-color="#021B8D"/>
<stop offset="1" stop-color="#C835F8"/>
</linearGradient>
<linearGradient id="paint9_linear_21_99" x1="14.2479" y1="12.4352" x2="14.2479" y2="-0.852014" gradientUnits="userSpaceOnUse">
<stop stop-color="#021B8D"/>
<stop offset="1" stop-color="#C835F8"/>
</linearGradient>
<linearGradient id="paint10_linear_21_99" x1="14.2479" y1="1.78174" x2="14.2479" y2="10.372" gradientUnits="userSpaceOnUse">
<stop stop-color="white" stop-opacity="0.9"/>
<stop offset="1" stop-color="white"/>
</linearGradient>
<linearGradient id="paint11_linear_21_99" x1="14.2479" y1="1.78174" x2="14.2479" y2="10.372" gradientUnits="userSpaceOnUse">
<stop stop-color="white" stop-opacity="0.9"/>
<stop offset="1" stop-color="white"/>
</linearGradient>
<linearGradient id="paint12_linear_21_99" x1="14.2412" y1="10.8629" x2="14.2412" y2="2.44859" gradientUnits="userSpaceOnUse">
<stop/>
<stop offset="1" stop-color="#021B8D"/>
</linearGradient>
<linearGradient id="paint13_linear_21_99" x1="14.247" y1="12.3833" x2="14.2479" y2="4.43372" gradientUnits="userSpaceOnUse">
<stop stop-color="#021B8D"/>
<stop offset="1" stop-color="#C835F8"/>
</linearGradient>
<linearGradient id="paint14_linear_21_99" x1="14.247" y1="13.8196" x2="14.247" y2="5.88822" gradientUnits="userSpaceOnUse">
<stop/>
<stop offset="1" stop-color="#021B8D"/>
</linearGradient>
<linearGradient id="paint15_linear_21_99" x1="14.247" y1="7.06293" x2="14.248" y2="4.55767" gradientUnits="userSpaceOnUse">
<stop stop-color="#021B8D"/>
<stop offset="1" stop-color="#C835F8"/>
</linearGradient>
<linearGradient id="paint16_linear_21_99" x1="9.76225" y1="24.3519" x2="9.76225" y2="10.0949" gradientUnits="userSpaceOnUse">
<stop stop-color="#0131B9"/>
<stop offset="1" stop-color="#8EFFC1"/>
</linearGradient>
<linearGradient id="paint17_linear_21_99" x1="5.27048" y1="21.7227" x2="5.27048" y2="10.4813" gradientUnits="userSpaceOnUse">
<stop stop-color="#021B8D"/>
<stop offset="1" stop-color="#C835F8"/>
</linearGradient>
<linearGradient id="paint18_linear_21_99" x1="14.255" y1="24.8485" x2="14.255" y2="12.0625" gradientUnits="userSpaceOnUse">
<stop stop-color="#021B8D"/>
<stop offset="1" stop-color="#C835F8"/>
</linearGradient>
<linearGradient id="paint19_linear_21_99" x1="9.76225" y1="13.7759" x2="9.76225" y2="11.8301" gradientUnits="userSpaceOnUse">
<stop stop-color="white"/>
<stop offset="1" stop-color="white" stop-opacity="0.4"/>
</linearGradient>
<linearGradient id="paint20_linear_21_99" x1="23.2579" y1="12.7046" x2="23.2579" y2="15.6313" gradientUnits="userSpaceOnUse">
<stop stop-color="white" stop-opacity="0.6"/>
<stop offset="1" stop-color="white"/>
</linearGradient>
</defs>
</svg>
