<svg width="22" height="18" viewBox="0 0 22 18" fill="none" xmlns="http://www.w3.org/2000/svg">
<path d="M21 9C21 12.7712 21 14.6569 19.8284 15.8284C18.6569 17 16.7712 17 13 17H9C5.22876 17 3.34315 17 2.17157 15.8284C1 14.6569 1 12.7712 1 9C1 5.22876 1 3.34315 2.17157 2.17157C3.34315 1 5.22876 1 9 1H13C16.7712 1 18.6569 1 19.8284 2.17157C20.4816 2.82475 20.7706 3.69989 20.8985 5" stroke="white" stroke-linecap="round"/>
<path d="M17 5L14.8411 6.79908C13.0045 8.3296 12.0861 9.0949 11 9.0949C10.3507 9.0949 9.7614 8.8214 9 8.2744M5 5L5.9 5.75L6.8 6.5" stroke="white" stroke-linecap="round"/>
</svg>
