<svg width="20" height="20" viewBox="0 0 20 20" fill="none" xmlns="http://www.w3.org/2000/svg">
<path fill-rule="evenodd" clip-rule="evenodd" d="M4.18605 10C4.18605 9.35046 4.29628 8.72774 4.49302 8.14364L1.0493 5.57001C0.37814 6.90364 0 8.40637 0 10C0 11.5923 0.377674 13.0941 1.04791 14.4268L4.48977 11.8482C4.29488 11.2668 4.18605 10.6464 4.18605 10Z" fill="#FBBC05"/>
<path fill-rule="evenodd" clip-rule="evenodd" d="M10.2326 4.09091C11.6744 4.09091 12.9768 4.59091 14 5.40909L16.9768 2.5C15.1628 0.954545 12.8372 0 10.2326 0C6.18885 0 2.7135 2.26318 1.04932 5.57L4.49304 8.14364C5.28653 5.78636 7.54839 4.09091 10.2326 4.09091Z" fill="#EB4335"/>
<path fill-rule="evenodd" clip-rule="evenodd" d="M10.2326 15.909C7.54839 15.909 5.28653 14.2136 4.49304 11.8563L1.04932 14.4295C2.7135 17.7368 6.18885 20 10.2326 20C12.7284 20 15.1112 19.1327 16.8995 17.5077L13.6307 15.0345C12.7084 15.6031 11.547 15.909 10.2326 15.909Z" fill="#34A853"/>
<path fill-rule="evenodd" clip-rule="evenodd" d="M20 10.0001C20 9.40916 19.907 8.77279 19.7674 8.18188H10.2325V12.0455H15.7209C15.4465 13.3628 14.6995 14.3755 13.6307 15.0346L16.8995 17.5078C18.7781 15.8014 20 13.2596 20 10.0001Z" fill="#4285F4"/>
</svg>
